<svg id="visual" viewBox="0 0 900 600" width="900" height="600" xmlns="http://www.w3.org/2000/svg" xmlns:xlink="http://www.w3.org/1999/xlink" version="1.1"><rect width="900" height="600" fill="#9ECFC2"></rect><g><g transform="translate(789 392)"><path d="M60.9 -22.3C68.8 4.7 58.2 35.1 37.7 49.5C17.1 63.9 -13.5 62.3 -34.3 47.1C-55.1 32 -66.2 3.4 -58.9 -22.7C-51.6 -48.8 -25.8 -72.5 0.3 -72.6C26.5 -72.8 52.9 -49.3 60.9 -22.3Z" stroke="#07b98e" fill="none" stroke-width="20"></path></g><g transform="translate(254 254)"><path d="M61.9 -21.9C69.4 3.1 57.3 32.6 36.4 47C15.6 61.4 -14 60.7 -35.8 45.7C-57.6 30.7 -71.7 1.4 -64.4 -23.2C-57.2 -47.8 -28.6 -67.8 -0.7 -67.5C27.2 -67.3 54.4 -46.9 61.9 -21.9Z" stroke="#07b98e" fill="none" stroke-width="20"></path></g><g transform="translate(631 537)"><path d="M41.4 -10.9C47.5 5.5 42.2 28.1 28.3 38C14.4 47.9 -8.1 45 -22.7 33.8C-37.2 22.7 -43.9 3.1 -38.7 -11.8C-33.6 -26.8 -16.8 -37.2 0.4 -37.4C17.6 -37.5 35.3 -27.3 41.4 -10.9Z" stroke="#07b98e" fill="none" stroke-width="20"></path></g><g transform="translate(609 242)"><path d="M31.3 -11.4C35.1 1.6 29 16.6 18.1 24.4C7.2 32.2 -8.6 32.8 -19.4 25.3C-30.2 17.7 -36.2 2 -32.1 -11.2C-28.1 -24.5 -14 -35.4 -0.2 -35.3C13.7 -35.3 27.5 -24.3 31.3 -11.4Z" stroke="#07b98e" fill="none" stroke-width="20"></path></g><g transform="translate(359 548)"><path d="M39.3 -10.8C44.6 3.6 38.3 23.8 24.4 33.9C10.6 44 -10.7 44 -24.2 34C-37.7 24 -43.4 4.1 -38 -10.3C-32.7 -24.7 -16.3 -33.5 0.3 -33.6C17 -33.7 34 -25.1 39.3 -10.8Z" stroke="#07b98e" fill="none" stroke-width="20"></path></g><g transform="translate(406 110)"><path d="M35.7 -12C39.7 1 32.1 17.3 20.1 25.6C8 33.9 -8.4 34.1 -19.7 26.1C-30.9 18.2 -36.8 2.2 -32.7 -10.9C-28.5 -23.9 -14.3 -33.9 0.8 -34.2C15.8 -34.4 31.6 -24.9 35.7 -12Z" stroke="#07b98e" fill="none" stroke-width="20"></path></g><g transform="translate(79 458)"><path d="M33.1 -10C37.9 3.9 33.2 21.7 21.4 30.5C9.6 39.4 -9.5 39.3 -22.1 30.3C-34.6 21.2 -40.6 3 -35.9 -10.9C-31.1 -24.8 -15.6 -34.4 -0.7 -34.2C14.2 -34 28.3 -23.9 33.1 -10Z" stroke="#07b98e" fill="none" stroke-width="20"></path></g><g transform="translate(844 74)"><path d="M55.7 -16.1C63.6 6.4 55.7 36.1 36.5 50C17.3 64 -13.3 62.1 -33 47.3C-52.7 32.6 -61.6 4.8 -54.3 -16.8C-47 -38.3 -23.5 -53.8 0.2 -53.8C23.9 -53.9 47.7 -38.6 55.7 -16.1Z" stroke="#07b98e" fill="none" stroke-width="20"></path></g><g transform="translate(82 113)"><path d="M44.6 -12.7C50.8 4.9 44.3 28.5 28.7 39.9C13.1 51.4 -11.6 50.7 -28 38.8C-44.3 26.9 -52.2 3.7 -46.2 -13.6C-40.1 -30.9 -20.1 -42.3 -0.5 -42.1C19.1 -42 38.3 -30.3 44.6 -12.7Z" stroke="#07b98e" fill="none" stroke-width="20"></path></g><g transform="translate(587 5)"><path d="M58.3 -18.1C65.6 3.5 54.6 31.8 34.4 46.3C14.1 60.8 -15.6 61.5 -35 47.5C-54.5 33.5 -63.8 4.9 -56.3 -17.1C-48.8 -39 -24.4 -54.2 0.6 -54.4C25.5 -54.6 51 -39.7 58.3 -18.1Z" stroke="#07b98e" fill="none" stroke-width="20"></path></g><g transform="translate(874 599)"><path d="M59.3 -20.9C67.7 6.6 59 37.9 37.1 54.8C15.1 71.6 -20.1 73.8 -40.9 58.2C-61.8 42.7 -68.2 9.2 -59 -19.4C-49.8 -48 -24.9 -71.8 0.3 -71.9C25.5 -71.9 50.9 -48.4 59.3 -20.9Z" stroke="#07b98e" fill="none" stroke-width="20"></path></g><g transform="translate(458 380)"><path d="M62 -18.4C70.3 5.6 60.2 37.3 39.2 52.3C18.1 67.2 -14 65.4 -35.7 49.5C-57.4 33.7 -68.7 3.8 -61 -19.2C-53.3 -42.3 -26.7 -58.7 0.1 -58.7C26.8 -58.7 53.6 -42.4 62 -18.4Z" stroke="#07b98e" fill="none" stroke-width="20"></path></g></g></svg>