<svg id="visual" viewBox="0 0 900 600" width="900" height="600" xmlns="http://www.w3.org/2000/svg" xmlns:xlink="http://www.w3.org/1999/xlink" version="1.1"><rect x="0" y="0" width="900" height="600" fill="#9ecfc2"></rect><defs><linearGradient id="grad1_0" x1="33.3%" y1="0%" x2="100%" y2="100%"><stop offset="20%" stop-color="#07b98e" stop-opacity="1"></stop><stop offset="80%" stop-color="#07b98e" stop-opacity="1"></stop></linearGradient></defs><defs><linearGradient id="grad1_1" x1="33.3%" y1="0%" x2="100%" y2="100%"><stop offset="20%" stop-color="#07b98e" stop-opacity="1"></stop><stop offset="80%" stop-color="#67c5aa" stop-opacity="1"></stop></linearGradient></defs><defs><linearGradient id="grad1_2" x1="33.3%" y1="0%" x2="100%" y2="100%"><stop offset="20%" stop-color="#9ecfc2" stop-opacity="1"></stop><stop offset="80%" stop-color="#67c5aa" stop-opacity="1"></stop></linearGradient></defs><defs><linearGradient id="grad2_0" x1="0%" y1="0%" x2="66.7%" y2="100%"><stop offset="20%" stop-color="#07b98e" stop-opacity="1"></stop><stop offset="80%" stop-color="#07b98e" stop-opacity="1"></stop></linearGradient></defs><defs><linearGradient id="grad2_1" x1="0%" y1="0%" x2="66.7%" y2="100%"><stop offset="20%" stop-color="#67c5aa" stop-opacity="1"></stop><stop offset="80%" stop-color="#07b98e" stop-opacity="1"></stop></linearGradient></defs><defs><linearGradient id="grad2_2" x1="0%" y1="0%" x2="66.7%" y2="100%"><stop offset="20%" stop-color="#67c5aa" stop-opacity="1"></stop><stop offset="80%" stop-color="#9ecfc2" stop-opacity="1"></stop></linearGradient></defs><g transform="translate(900, 0)"><path d="M0 486.7C-54.1 445.7 -108.1 404.7 -154.6 373.2C-201.1 341.8 -240 319.9 -293.4 293.4C-346.9 267 -415 235.9 -449.7 186.3C-484.3 136.6 -485.5 68.3 -486.7 0L0 0Z" fill="#83cab6"></path><path d="M0 324.5C-36 297.1 -72.1 269.8 -103.1 248.8C-134.1 227.9 -160 213.3 -195.6 195.6C-231.3 178 -276.7 157.3 -299.8 124.2C-322.9 91.1 -323.7 45.5 -324.5 0L0 0Z" fill="#46bf9c"></path><path d="M0 162.2C-18 148.6 -36 134.9 -51.5 124.4C-67 113.9 -80 106.6 -97.8 97.8C-115.6 89 -138.3 78.6 -149.9 62.1C-161.4 45.5 -161.8 22.8 -162.2 0L0 0Z" fill="#07b98e"></path></g><g transform="translate(0, 600)"><path d="M0 -486.7C66.6 -475.9 133.1 -465.1 177.9 -429.6C222.8 -394.1 245.8 -334 293.4 -293.4C341.1 -252.9 413.4 -231.9 449.7 -186.3C486 -140.6 486.4 -70.3 486.7 0L0 0Z" fill="#83cab6"></path><path d="M0 -324.5C44.4 -317.3 88.8 -310.1 118.6 -286.4C148.5 -262.8 163.9 -222.7 195.6 -195.6C227.4 -168.6 275.6 -154.6 299.8 -124.2C324 -93.7 324.3 -46.9 324.5 0L0 0Z" fill="#46bf9c"></path><path d="M0 -162.2C22.2 -158.6 44.4 -155 59.3 -143.2C74.3 -131.4 81.9 -111.3 97.8 -97.8C113.7 -84.3 137.8 -77.3 149.9 -62.1C162 -46.9 162.1 -23.4 162.2 0L0 0Z" fill="#07b98e"></path></g></svg>