<svg id="visual" viewBox="0 0 900 600" width="900" height="600" xmlns="http://www.w3.org/2000/svg" xmlns:xlink="http://www.w3.org/1999/xlink" version="1.1"><path d="M0 253L13.7 224C27.3 195 54.7 137 82 121C109.3 105 136.7 131 163.8 178C191 225 218 293 245.2 303C272.3 313 299.7 265 327 251C354.3 237 381.7 257 409 225C436.3 193 463.7 109 491 69C518.3 29 545.7 33 573 38C600.3 43 627.7 49 654.8 63C682 77 709 99 736.2 115C763.3 131 790.7 141 818 122C845.3 103 872.7 55 886.3 31L900 7L900 0L886.3 0C872.7 0 845.3 0 818 0C790.7 0 763.3 0 736.2 0C709 0 682 0 654.8 0C627.7 0 600.3 0 573 0C545.7 0 518.3 0 491 0C463.7 0 436.3 0 409 0C381.7 0 354.3 0 327 0C299.7 0 272.3 0 245.2 0C218 0 191 0 163.8 0C136.7 0 109.3 0 82 0C54.7 0 27.3 0 13.7 0L0 0Z" fill="#bdded4"></path><path d="M0 373L13.7 337C27.3 301 54.7 229 82 198C109.3 167 136.7 177 163.8 219C191 261 218 335 245.2 348C272.3 361 299.7 313 327 293C354.3 273 381.7 281 409 261C436.3 241 463.7 193 491 163C518.3 133 545.7 121 573 110C600.3 99 627.7 89 654.8 104C682 119 709 159 736.2 185C763.3 211 790.7 223 818 205C845.3 187 872.7 139 886.3 115L900 91L900 5L886.3 29C872.7 53 845.3 101 818 120C790.7 139 763.3 129 736.2 113C709 97 682 75 654.8 61C627.7 47 600.3 41 573 36C545.7 31 518.3 27 491 67C463.7 107 436.3 191 409 223C381.7 255 354.3 235 327 249C299.7 263 272.3 311 245.2 301C218 291 191 223 163.8 176C136.7 129 109.3 103 82 119C54.7 135 27.3 193 13.7 222L0 251Z" fill="#b3d9ce"></path><path d="M0 421L13.7 391C27.3 361 54.7 301 82 275C109.3 249 136.7 257 163.8 289C191 321 218 377 245.2 398C272.3 419 299.7 405 327 393C354.3 381 381.7 371 409 385C436.3 399 463.7 437 491 439C518.3 441 545.7 407 573 384C600.3 361 627.7 349 654.8 325C682 301 709 265 736.2 273C763.3 281 790.7 333 818 359C845.3 385 872.7 385 886.3 385L900 385L900 89L886.3 113C872.7 137 845.3 185 818 203C790.7 221 763.3 209 736.2 183C709 157 682 117 654.8 102C627.7 87 600.3 97 573 108C545.7 119 518.3 131 491 161C463.7 191 436.3 239 409 259C381.7 279 354.3 271 327 291C299.7 311 272.3 359 245.2 346C218 333 191 259 163.8 217C136.7 175 109.3 165 82 196C54.7 227 27.3 299 13.7 335L0 371Z" fill="#a8d4c8"></path><path d="M0 451L13.7 418C27.3 385 54.7 319 82 299C109.3 279 136.7 305 163.8 350C191 395 218 459 245.2 479C272.3 499 299.7 475 327 453C354.3 431 381.7 411 409 421C436.3 431 463.7 471 491 478C518.3 485 545.7 459 573 433C600.3 407 627.7 381 654.8 362C682 343 709 331 736.2 349C763.3 367 790.7 415 818 436C845.3 457 872.7 451 886.3 448L900 445L900 383L886.3 383C872.7 383 845.3 383 818 357C790.7 331 763.3 279 736.2 271C709 263 682 299 654.8 323C627.7 347 600.3 359 573 382C545.7 405 518.3 439 491 437C463.7 435 436.3 397 409 383C381.7 369 354.3 379 327 391C299.7 403 272.3 417 245.2 396C218 375 191 319 163.8 287C136.7 255 109.3 247 82 273C54.7 299 27.3 359 13.7 389L0 419Z" fill="#9ecfc2"></path><path d="M0 457L13.7 445C27.3 433 54.7 409 82 394C109.3 379 136.7 373 163.8 396C191 419 218 471 245.2 507C272.3 543 299.7 563 327 558C354.3 553 381.7 523 409 514C436.3 505 463.7 517 491 519C518.3 521 545.7 513 573 503C600.3 493 627.7 481 654.8 470C682 459 709 449 736.2 454C763.3 459 790.7 479 818 493C845.3 507 872.7 515 886.3 519L900 523L900 443L886.3 446C872.7 449 845.3 455 818 434C790.7 413 763.3 365 736.2 347C709 329 682 341 654.8 360C627.7 379 600.3 405 573 431C545.7 457 518.3 483 491 476C463.7 469 436.3 429 409 419C381.7 409 354.3 429 327 451C299.7 473 272.3 497 245.2 477C218 457 191 393 163.8 348C136.7 303 109.3 277 82 297C54.7 317 27.3 383 13.7 416L0 449Z" fill="#93c5b8"></path><path d="M0 505L13.7 500C27.3 495 54.7 485 82 469C109.3 453 136.7 431 163.8 450C191 469 218 529 245.2 560C272.3 591 299.7 593 327 589C354.3 585 381.7 575 409 574C436.3 573 463.7 581 491 579C518.3 577 545.7 565 573 549C600.3 533 627.7 513 654.8 502C682 491 709 489 736.2 505C763.3 521 790.7 555 818 566C845.3 577 872.7 565 886.3 559L900 553L900 521L886.3 517C872.7 513 845.3 505 818 491C790.7 477 763.3 457 736.2 452C709 447 682 457 654.8 468C627.7 479 600.3 491 573 501C545.7 511 518.3 519 491 517C463.7 515 436.3 503 409 512C381.7 521 354.3 551 327 556C299.7 561 272.3 541 245.2 505C218 469 191 417 163.8 394C136.7 371 109.3 377 82 392C54.7 407 27.3 431 13.7 443L0 455Z" fill="#88bcae"></path><path d="M0 601L13.7 601C27.3 601 54.7 601 82 601C109.3 601 136.7 601 163.8 601C191 601 218 601 245.2 601C272.3 601 299.7 601 327 601C354.3 601 381.7 601 409 601C436.3 601 463.7 601 491 601C518.3 601 545.7 601 573 601C600.3 601 627.7 601 654.8 601C682 601 709 601 736.2 601C763.3 601 790.7 601 818 601C845.3 601 872.7 601 886.3 601L900 601L900 551L886.3 557C872.7 563 845.3 575 818 564C790.7 553 763.3 519 736.2 503C709 487 682 489 654.8 500C627.7 511 600.3 531 573 547C545.7 563 518.3 575 491 577C463.7 579 436.3 571 409 572C381.7 573 354.3 583 327 587C299.7 591 272.3 589 245.2 558C218 527 191 467 163.8 448C136.7 429 109.3 451 82 467C54.7 483 27.3 493 13.7 498L0 503Z" fill="#7db2a4"></path></svg>