<svg id="visual" viewBox="0 0 900 600" width="900" height="600" xmlns="http://www.w3.org/2000/svg" xmlns:xlink="http://www.w3.org/1999/xlink" version="1.1"><path d="M0 85L180 85L180 61L360 61L360 79L540 79L540 73L720 73L720 79L900 79L900 73L900 0L900 0L720 0L720 0L540 0L540 0L360 0L360 0L180 0L180 0L0 0Z" fill="#bdded4"></path><path d="M0 271L180 271L180 205L360 205L360 175L540 175L540 271L720 271L720 289L900 289L900 193L900 71L900 77L720 77L720 71L540 71L540 77L360 77L360 59L180 59L180 83L0 83Z" fill="#b1d8cd"></path><path d="M0 403L180 403L180 283L360 283L360 229L540 229L540 319L720 319L720 361L900 361L900 307L900 191L900 287L720 287L720 269L540 269L540 173L360 173L360 203L180 203L180 269L0 269Z" fill="#a4d2c6"></path><path d="M0 493L180 493L180 505L360 505L360 463L540 463L540 445L720 445L720 487L900 487L900 481L900 305L900 359L720 359L720 317L540 317L540 227L360 227L360 281L180 281L180 401L0 401Z" fill="#97c9bc"></path><path d="M0 553L180 553L180 553L360 553L360 523L540 523L540 517L720 517L720 553L900 553L900 565L900 479L900 485L720 485L720 443L540 443L540 461L360 461L360 503L180 503L180 491L0 491Z" fill="#8abeb0"></path><path d="M0 601L180 601L180 601L360 601L360 601L540 601L540 601L720 601L720 601L900 601L900 601L900 563L900 551L720 551L720 515L540 515L540 521L360 521L360 551L180 551L180 551L0 551Z" fill="#7db2a4"></path></svg>