<svg id="visual" viewBox="0 0 900 600" width="900" height="600" xmlns="http://www.w3.org/2000/svg" xmlns:xlink="http://www.w3.org/1999/xlink" version="1.1"><path d="M0 55L6.5 50C13 45 26 35 39 31C52 27 65 29 78 31C91 33 104 35 117.2 34C130.3 33 143.7 29 156.8 29C170 29 183 33 196 36C209 39 222 41 235 40C248 39 261 35 274 34C287 33 300 35 313 35C326 35 339 33 352 33C365 33 378 35 391 37C404 39 417 41 430.2 41C443.3 41 456.7 39 469.8 37C483 35 496 33 509 33C522 33 535 35 548 37C561 39 574 41 587 43C600 45 613 47 626 45C639 43 652 37 665 37C678 37 691 43 704 43C717 43 730 37 743.2 36C756.3 35 769.7 39 782.8 43C796 47 809 51 822 53C835 55 848 55 861 50C874 45 887 35 893.5 30L900 25L900 0L893.5 0C887 0 874 0 861 0C848 0 835 0 822 0C809 0 796 0 782.8 0C769.7 0 756.3 0 743.2 0C730 0 717 0 704 0C691 0 678 0 665 0C652 0 639 0 626 0C613 0 600 0 587 0C574 0 561 0 548 0C535 0 522 0 509 0C496 0 483 0 469.8 0C456.7 0 443.3 0 430.2 0C417 0 404 0 391 0C378 0 365 0 352 0C339 0 326 0 313 0C300 0 287 0 274 0C261 0 248 0 235 0C222 0 209 0 196 0C183 0 170 0 156.8 0C143.7 0 130.3 0 117.2 0C104 0 91 0 78 0C65 0 52 0 39 0C26 0 13 0 6.5 0L0 0Z" fill="#008769"></path><path d="M0 97L6.5 91C13 85 26 73 39 70C52 67 65 73 78 74C91 75 104 71 117.2 65C130.3 59 143.7 51 156.8 49C170 47 183 51 196 56C209 61 222 67 235 71C248 75 261 77 274 75C287 73 300 67 313 66C326 65 339 69 352 69C365 69 378 65 391 67C404 69 417 77 430.2 78C443.3 79 456.7 73 469.8 68C483 63 496 59 509 62C522 65 535 75 548 78C561 81 574 77 587 75C600 73 613 73 626 70C639 67 652 61 665 61C678 61 691 67 704 66C717 65 730 57 743.2 58C756.3 59 769.7 69 782.8 74C796 79 809 79 822 79C835 79 848 79 861 77C874 75 887 71 893.5 69L900 67L900 23L893.5 28C887 33 874 43 861 48C848 53 835 53 822 51C809 49 796 45 782.8 41C769.7 37 756.3 33 743.2 34C730 35 717 41 704 41C691 41 678 35 665 35C652 35 639 41 626 43C613 45 600 43 587 41C574 39 561 37 548 35C535 33 522 31 509 31C496 31 483 33 469.8 35C456.7 37 443.3 39 430.2 39C417 39 404 37 391 35C378 33 365 31 352 31C339 31 326 33 313 33C300 33 287 31 274 32C261 33 248 37 235 38C222 39 209 37 196 34C183 31 170 27 156.8 27C143.7 27 130.3 31 117.2 32C104 33 91 31 78 29C65 27 52 25 39 29C26 33 13 43 6.5 48L0 53Z" fill="#009070"></path><path d="M0 247L6.5 232C13 217 26 187 39 174C52 161 65 165 78 162C91 159 104 149 117.2 143C130.3 137 143.7 135 156.8 137C170 139 183 145 196 151C209 157 222 163 235 165C248 167 261 165 274 166C287 167 300 171 313 182C326 193 339 211 352 203C365 195 378 161 391 156C404 151 417 175 430.2 177C443.3 179 456.7 159 469.8 153C483 147 496 155 509 168C522 181 535 199 548 212C561 225 574 233 587 228C600 223 613 205 626 195C639 185 652 183 665 176C678 169 691 157 704 162C717 167 730 189 743.2 196C756.3 203 769.7 195 782.8 190C796 185 809 183 822 183C835 183 848 185 861 183C874 181 887 175 893.5 172L900 169L900 65L893.5 67C887 69 874 73 861 75C848 77 835 77 822 77C809 77 796 77 782.8 72C769.7 67 756.3 57 743.2 56C730 55 717 63 704 64C691 65 678 59 665 59C652 59 639 65 626 68C613 71 600 71 587 73C574 75 561 79 548 76C535 73 522 63 509 60C496 57 483 61 469.8 66C456.7 71 443.3 77 430.2 76C417 75 404 67 391 65C378 63 365 67 352 67C339 67 326 63 313 64C300 65 287 71 274 73C261 75 248 73 235 69C222 65 209 59 196 54C183 49 170 45 156.8 47C143.7 49 130.3 57 117.2 63C104 69 91 73 78 72C65 71 52 65 39 68C26 71 13 83 6.5 89L0 95Z" fill="#019976"></path><path d="M0 259L6.5 245C13 231 26 203 39 192C52 181 65 187 78 185C91 183 104 173 117.2 168C130.3 163 143.7 163 156.8 165C170 167 183 171 196 174C209 177 222 179 235 179C248 179 261 177 274 180C287 183 300 191 313 204C326 217 339 235 352 228C365 221 378 189 391 184C404 179 417 201 430.2 202C443.3 203 456.7 183 469.8 178C483 173 496 183 509 196C522 209 535 225 548 235C561 245 574 249 587 245C600 241 613 229 626 219C639 209 652 201 665 193C678 185 691 177 704 185C717 193 730 217 743.2 225C756.3 233 769.7 225 782.8 218C796 211 809 205 822 202C835 199 848 199 861 197C874 195 887 191 893.5 189L900 187L900 167L893.5 170C887 173 874 179 861 181C848 183 835 181 822 181C809 181 796 183 782.8 188C769.7 193 756.3 201 743.2 194C730 187 717 165 704 160C691 155 678 167 665 174C652 181 639 183 626 193C613 203 600 221 587 226C574 231 561 223 548 210C535 197 522 179 509 166C496 153 483 145 469.8 151C456.7 157 443.3 177 430.2 175C417 173 404 149 391 154C378 159 365 193 352 201C339 209 326 191 313 180C300 169 287 165 274 164C261 163 248 165 235 163C222 161 209 155 196 149C183 143 170 137 156.8 135C143.7 133 130.3 135 117.2 141C104 147 91 157 78 160C65 163 52 159 39 172C26 185 13 215 6.5 230L0 245Z" fill="#02a27d"></path><path d="M0 295L6.5 281C13 267 26 239 39 225C52 211 65 211 78 208C91 205 104 199 117.2 198C130.3 197 143.7 201 156.8 205C170 209 183 213 196 215C209 217 222 217 235 217C248 217 261 217 274 217C287 217 300 217 313 226C326 235 339 253 352 249C365 245 378 219 391 215C404 211 417 229 430.2 228C443.3 227 456.7 207 469.8 203C483 199 496 211 509 227C522 243 535 263 548 271C561 279 574 275 587 271C600 267 613 263 626 254C639 245 652 231 665 221C678 211 691 205 704 212C717 219 730 239 743.2 245C756.3 251 769.7 243 782.8 239C796 235 809 235 822 234C835 233 848 231 861 228C874 225 887 221 893.5 219L900 217L900 185L893.5 187C887 189 874 193 861 195C848 197 835 197 822 200C809 203 796 209 782.8 216C769.7 223 756.3 231 743.2 223C730 215 717 191 704 183C691 175 678 183 665 191C652 199 639 207 626 217C613 227 600 239 587 243C574 247 561 243 548 233C535 223 522 207 509 194C496 181 483 171 469.8 176C456.7 181 443.3 201 430.2 200C417 199 404 177 391 182C378 187 365 219 352 226C339 233 326 215 313 202C300 189 287 181 274 178C261 175 248 177 235 177C222 177 209 175 196 172C183 169 170 165 156.8 163C143.7 161 130.3 161 117.2 166C104 171 91 181 78 183C65 185 52 179 39 190C26 201 13 229 6.5 243L0 257Z" fill="#04ab84"></path><path d="M0 319L6.5 305C13 291 26 263 39 251C52 239 65 243 78 242C91 241 104 235 117.2 234C130.3 233 143.7 237 156.8 241C170 245 183 249 196 249C209 249 222 245 235 243C248 241 261 241 274 243C287 245 300 249 313 259C326 269 339 285 352 278C365 271 378 241 391 236C404 231 417 251 430.2 250C443.3 249 456.7 227 469.8 223C483 219 496 233 509 250C522 267 535 287 548 295C561 303 574 299 587 297C600 295 613 295 626 287C639 279 652 263 665 250C678 237 691 227 704 235C717 243 730 269 743.2 278C756.3 287 769.7 279 782.8 274C796 269 809 267 822 264C835 261 848 257 861 253C874 249 887 245 893.5 243L900 241L900 215L893.5 217C887 219 874 223 861 226C848 229 835 231 822 232C809 233 796 233 782.8 237C769.7 241 756.3 249 743.2 243C730 237 717 217 704 210C691 203 678 209 665 219C652 229 639 243 626 252C613 261 600 265 587 269C574 273 561 277 548 269C535 261 522 241 509 225C496 209 483 197 469.8 201C456.7 205 443.3 225 430.2 226C417 227 404 209 391 213C378 217 365 243 352 247C339 251 326 233 313 224C300 215 287 215 274 215C261 215 248 215 235 215C222 215 209 215 196 213C183 211 170 207 156.8 203C143.7 199 130.3 195 117.2 196C104 197 91 203 78 206C65 209 52 209 39 223C26 237 13 265 6.5 279L0 293Z" fill="#06b48b"></path><path d="M0 367L6.5 353C13 339 26 311 39 299C52 287 65 291 78 288C91 285 104 275 117.2 273C130.3 271 143.7 277 156.8 282C170 287 183 291 196 293C209 295 222 295 235 290C248 285 261 275 274 277C287 279 300 293 313 306C326 319 339 331 352 323C365 315 378 287 391 281C404 275 417 291 430.2 290C443.3 289 456.7 271 469.8 268C483 265 496 277 509 293C522 309 535 329 548 337C561 345 574 341 587 338C600 335 613 333 626 325C639 317 652 303 665 294C678 285 691 281 704 288C717 295 730 313 743.2 321C756.3 329 769.7 327 782.8 321C796 315 809 305 822 300C835 295 848 295 861 293C874 291 887 287 893.5 285L900 283L900 239L893.5 241C887 243 874 247 861 251C848 255 835 259 822 262C809 265 796 267 782.8 272C769.7 277 756.3 285 743.2 276C730 267 717 241 704 233C691 225 678 235 665 248C652 261 639 277 626 285C613 293 600 293 587 295C574 297 561 301 548 293C535 285 522 265 509 248C496 231 483 217 469.8 221C456.7 225 443.3 247 430.2 248C417 249 404 229 391 234C378 239 365 269 352 276C339 283 326 267 313 257C300 247 287 243 274 241C261 239 248 239 235 241C222 243 209 247 196 247C183 247 170 243 156.8 239C143.7 235 130.3 231 117.2 232C104 233 91 239 78 240C65 241 52 237 39 249C26 261 13 289 6.5 303L0 317Z" fill="#16bb91"></path><path d="M0 391L6.5 376C13 361 26 331 39 319C52 307 65 313 78 311C91 309 104 299 117.2 299C130.3 299 143.7 309 156.8 313C170 317 183 315 196 315C209 315 222 317 235 313C248 309 261 299 274 301C287 303 300 317 313 330C326 343 339 355 352 346C365 337 378 307 391 301C404 295 417 313 430.2 315C443.3 317 456.7 303 469.8 299C483 295 496 301 509 314C522 327 535 347 548 357C561 367 574 367 587 365C600 363 613 359 626 352C639 345 652 335 665 326C678 317 691 309 704 315C717 321 730 341 743.2 349C756.3 357 769.7 353 782.8 348C796 343 809 337 822 331C835 325 848 319 861 316C874 313 887 313 893.5 313L900 313L900 281L893.5 283C887 285 874 289 861 291C848 293 835 293 822 298C809 303 796 313 782.8 319C769.7 325 756.3 327 743.2 319C730 311 717 293 704 286C691 279 678 283 665 292C652 301 639 315 626 323C613 331 600 333 587 336C574 339 561 343 548 335C535 327 522 307 509 291C496 275 483 263 469.8 266C456.7 269 443.3 287 430.2 288C417 289 404 273 391 279C378 285 365 313 352 321C339 329 326 317 313 304C300 291 287 277 274 275C261 273 248 283 235 288C222 293 209 293 196 291C183 289 170 285 156.8 280C143.7 275 130.3 269 117.2 271C104 273 91 283 78 286C65 289 52 285 39 297C26 309 13 337 6.5 351L0 365Z" fill="#28bf97"></path><path d="M0 409L6.5 393C13 377 26 345 39 333C52 321 65 329 78 327C91 325 104 313 117.2 312C130.3 311 143.7 321 156.8 326C170 331 183 331 196 332C209 333 222 335 235 333C248 331 261 325 274 328C287 331 300 343 313 355C326 367 339 379 352 368C365 357 378 323 391 315C404 307 417 325 430.2 327C443.3 329 456.7 315 469.8 311C483 307 496 313 509 328C522 343 535 367 548 377C561 387 574 383 587 379C600 375 613 371 626 365C639 359 652 351 665 344C678 337 691 331 704 336C717 341 730 357 743.2 364C756.3 371 769.7 369 782.8 366C796 363 809 359 822 354C835 349 848 343 861 340C874 337 887 337 893.5 337L900 337L900 311L893.5 311C887 311 874 311 861 314C848 317 835 323 822 329C809 335 796 341 782.8 346C769.7 351 756.3 355 743.2 347C730 339 717 319 704 313C691 307 678 315 665 324C652 333 639 343 626 350C613 357 600 361 587 363C574 365 561 365 548 355C535 345 522 325 509 312C496 299 483 293 469.8 297C456.7 301 443.3 315 430.2 313C417 311 404 293 391 299C378 305 365 335 352 344C339 353 326 341 313 328C300 315 287 301 274 299C261 297 248 307 235 311C222 315 209 313 196 313C183 313 170 315 156.8 311C143.7 307 130.3 297 117.2 297C104 297 91 307 78 309C65 311 52 305 39 317C26 329 13 359 6.5 374L0 389Z" fill="#35c39c"></path><path d="M0 487L6.5 474C13 461 26 435 39 420C52 405 65 401 78 400C91 399 104 401 117.2 405C130.3 409 143.7 415 156.8 418C170 421 183 421 196 418C209 415 222 409 235 400C248 391 261 379 274 384C287 389 300 411 313 426C326 441 339 449 352 437C365 425 378 393 391 382C404 371 417 381 430.2 383C443.3 385 456.7 379 469.8 377C483 375 496 377 509 390C522 403 535 427 548 437C561 447 574 443 587 442C600 441 613 443 626 439C639 435 652 425 665 420C678 415 691 415 704 418C717 421 730 427 743.2 431C756.3 435 769.7 437 782.8 433C796 429 809 419 822 415C835 411 848 413 861 409C874 405 887 395 893.5 390L900 385L900 335L893.5 335C887 335 874 335 861 338C848 341 835 347 822 352C809 357 796 361 782.8 364C769.7 367 756.3 369 743.2 362C730 355 717 339 704 334C691 329 678 335 665 342C652 349 639 357 626 363C613 369 600 373 587 377C574 381 561 385 548 375C535 365 522 341 509 326C496 311 483 305 469.8 309C456.7 313 443.3 327 430.2 325C417 323 404 305 391 313C378 321 365 355 352 366C339 377 326 365 313 353C300 341 287 329 274 326C261 323 248 329 235 331C222 333 209 331 196 330C183 329 170 329 156.8 324C143.7 319 130.3 309 117.2 310C104 311 91 323 78 325C65 327 52 319 39 331C26 343 13 375 6.5 391L0 407Z" fill="#40c7a2"></path><path d="M0 523L6.5 515C13 507 26 491 39 475C52 459 65 443 78 439C91 435 104 443 117.2 448C130.3 453 143.7 455 156.8 459C170 463 183 469 196 472C209 475 222 475 235 468C248 461 261 447 274 447C287 447 300 461 313 476C326 491 339 507 352 500C365 493 378 463 391 454C404 445 417 457 430.2 455C443.3 453 456.7 437 469.8 430C483 423 496 425 509 441C522 457 535 487 548 502C561 517 574 517 587 515C600 513 613 509 626 505C639 501 652 497 665 492C678 487 691 481 704 485C717 489 730 503 743.2 509C756.3 515 769.7 513 782.8 506C796 499 809 487 822 484C835 481 848 487 861 483C874 479 887 465 893.5 458L900 451L900 383L893.5 388C887 393 874 403 861 407C848 411 835 409 822 413C809 417 796 427 782.8 431C769.7 435 756.3 433 743.2 429C730 425 717 419 704 416C691 413 678 413 665 418C652 423 639 433 626 437C613 441 600 439 587 440C574 441 561 445 548 435C535 425 522 401 509 388C496 375 483 373 469.8 375C456.7 377 443.3 383 430.2 381C417 379 404 369 391 380C378 391 365 423 352 435C339 447 326 439 313 424C300 409 287 387 274 382C261 377 248 389 235 398C222 407 209 413 196 416C183 419 170 419 156.8 416C143.7 413 130.3 407 117.2 403C104 399 91 397 78 398C65 399 52 403 39 418C26 433 13 459 6.5 472L0 485Z" fill="#4acba7"></path><path d="M0 601L6.5 601C13 601 26 601 39 601C52 601 65 601 78 601C91 601 104 601 117.2 601C130.3 601 143.7 601 156.8 601C170 601 183 601 196 601C209 601 222 601 235 601C248 601 261 601 274 601C287 601 300 601 313 601C326 601 339 601 352 601C365 601 378 601 391 601C404 601 417 601 430.2 601C443.3 601 456.7 601 469.8 601C483 601 496 601 509 601C522 601 535 601 548 601C561 601 574 601 587 601C600 601 613 601 626 601C639 601 652 601 665 601C678 601 691 601 704 601C717 601 730 601 743.2 601C756.3 601 769.7 601 782.8 601C796 601 809 601 822 601C835 601 848 601 861 601C874 601 887 601 893.5 601L900 601L900 449L893.5 456C887 463 874 477 861 481C848 485 835 479 822 482C809 485 796 497 782.8 504C769.7 511 756.3 513 743.2 507C730 501 717 487 704 483C691 479 678 485 665 490C652 495 639 499 626 503C613 507 600 511 587 513C574 515 561 515 548 500C535 485 522 455 509 439C496 423 483 421 469.8 428C456.7 435 443.3 451 430.2 453C417 455 404 443 391 452C378 461 365 491 352 498C339 505 326 489 313 474C300 459 287 445 274 445C261 445 248 459 235 466C222 473 209 473 196 470C183 467 170 461 156.8 457C143.7 453 130.3 451 117.2 446C104 441 91 433 78 437C65 441 52 457 39 473C26 489 13 505 6.5 513L0 521Z" fill="#53cfad"></path></svg>