<svg id="visual" viewBox="0 0 900 600" width="900" height="600" xmlns="http://www.w3.org/2000/svg" xmlns:xlink="http://www.w3.org/1999/xlink" version="1.1"><rect x="0" y="0" width="900" height="600" fill="#9ECFC2"></rect><defs><linearGradient id="grad1_0" x1="33.3%" y1="0%" x2="100%" y2="100%"><stop offset="20%" stop-color="#07b98e" stop-opacity="1"></stop><stop offset="80%" stop-color="#07b98e" stop-opacity="1"></stop></linearGradient></defs><defs><linearGradient id="grad1_1" x1="33.3%" y1="0%" x2="100%" y2="100%"><stop offset="20%" stop-color="#07b98e" stop-opacity="1"></stop><stop offset="80%" stop-color="#34bc96" stop-opacity="1"></stop></linearGradient></defs><defs><linearGradient id="grad1_2" x1="33.3%" y1="0%" x2="100%" y2="100%"><stop offset="20%" stop-color="#4bc09e" stop-opacity="1"></stop><stop offset="80%" stop-color="#34bc96" stop-opacity="1"></stop></linearGradient></defs><defs><linearGradient id="grad1_3" x1="33.3%" y1="0%" x2="100%" y2="100%"><stop offset="20%" stop-color="#4bc09e" stop-opacity="1"></stop><stop offset="80%" stop-color="#5ec3a6" stop-opacity="1"></stop></linearGradient></defs><defs><linearGradient id="grad1_4" x1="33.3%" y1="0%" x2="100%" y2="100%"><stop offset="20%" stop-color="#6fc6ae" stop-opacity="1"></stop><stop offset="80%" stop-color="#5ec3a6" stop-opacity="1"></stop></linearGradient></defs><defs><linearGradient id="grad1_5" x1="33.3%" y1="0%" x2="100%" y2="100%"><stop offset="20%" stop-color="#6fc6ae" stop-opacity="1"></stop><stop offset="80%" stop-color="#80c9b5" stop-opacity="1"></stop></linearGradient></defs><defs><linearGradient id="grad1_6" x1="33.3%" y1="0%" x2="100%" y2="100%"><stop offset="20%" stop-color="#8fccbb" stop-opacity="1"></stop><stop offset="80%" stop-color="#80c9b5" stop-opacity="1"></stop></linearGradient></defs><defs><linearGradient id="grad1_7" x1="33.3%" y1="0%" x2="100%" y2="100%"><stop offset="20%" stop-color="#8fccbb" stop-opacity="1"></stop><stop offset="80%" stop-color="#9ecfc2" stop-opacity="1"></stop></linearGradient></defs><defs><linearGradient id="grad2_0" x1="0%" y1="0%" x2="66.7%" y2="100%"><stop offset="20%" stop-color="#07b98e" stop-opacity="1"></stop><stop offset="80%" stop-color="#07b98e" stop-opacity="1"></stop></linearGradient></defs><defs><linearGradient id="grad2_1" x1="0%" y1="0%" x2="66.7%" y2="100%"><stop offset="20%" stop-color="#34bc96" stop-opacity="1"></stop><stop offset="80%" stop-color="#07b98e" stop-opacity="1"></stop></linearGradient></defs><defs><linearGradient id="grad2_2" x1="0%" y1="0%" x2="66.7%" y2="100%"><stop offset="20%" stop-color="#34bc96" stop-opacity="1"></stop><stop offset="80%" stop-color="#4bc09e" stop-opacity="1"></stop></linearGradient></defs><defs><linearGradient id="grad2_3" x1="0%" y1="0%" x2="66.7%" y2="100%"><stop offset="20%" stop-color="#5ec3a6" stop-opacity="1"></stop><stop offset="80%" stop-color="#4bc09e" stop-opacity="1"></stop></linearGradient></defs><defs><linearGradient id="grad2_4" x1="0%" y1="0%" x2="66.7%" y2="100%"><stop offset="20%" stop-color="#5ec3a6" stop-opacity="1"></stop><stop offset="80%" stop-color="#6fc6ae" stop-opacity="1"></stop></linearGradient></defs><defs><linearGradient id="grad2_5" x1="0%" y1="0%" x2="66.7%" y2="100%"><stop offset="20%" stop-color="#80c9b5" stop-opacity="1"></stop><stop offset="80%" stop-color="#6fc6ae" stop-opacity="1"></stop></linearGradient></defs><defs><linearGradient id="grad2_6" x1="0%" y1="0%" x2="66.7%" y2="100%"><stop offset="20%" stop-color="#80c9b5" stop-opacity="1"></stop><stop offset="80%" stop-color="#8fccbb" stop-opacity="1"></stop></linearGradient></defs><defs><linearGradient id="grad2_7" x1="0%" y1="0%" x2="66.7%" y2="100%"><stop offset="20%" stop-color="#9ecfc2" stop-opacity="1"></stop><stop offset="80%" stop-color="#8fccbb" stop-opacity="1"></stop></linearGradient></defs><g transform="translate(900, 0)"><path d="M0 540.8C-30 527.3 -60 513.8 -88.7 503.2C-117.5 492.6 -144.9 484.9 -174.4 479.2C-204 473.6 -235.6 469.9 -266 460.7C-296.4 451.5 -325.4 436.7 -347.6 414.3C-369.9 391.9 -385.2 361.8 -395.3 331.7C-405.3 301.6 -410.1 271.4 -427.8 247C-445.6 222.6 -476.3 204.1 -490.5 178.5C-504.8 153 -502.5 120.5 -508.2 89.6C-513.8 58.7 -527.3 29.3 -540.8 0L0 0Z" fill="#97cebf"></path><path d="M0 473.2C-26.3 461.4 -52.5 449.6 -77.6 440.3C-102.8 431.1 -126.8 424.3 -152.6 419.3C-178.5 414.4 -206.2 411.2 -232.7 403.1C-259.3 395.1 -284.7 382.1 -304.2 362.5C-323.6 342.9 -337.1 316.6 -345.9 290.2C-354.7 263.9 -358.8 237.5 -374.3 216.1C-389.9 194.8 -416.7 178.6 -429.2 156.2C-441.7 133.9 -439.7 105.5 -444.6 78.4C-449.6 51.4 -461.4 25.7 -473.2 0L0 0Z" fill="#87cbb8"></path><path d="M0 405.6C-22.5 395.5 -45 385.4 -66.6 377.4C-88.1 369.5 -108.7 363.7 -130.8 359.4C-153 355.2 -176.7 352.5 -199.5 345.5C-222.3 338.6 -244.1 327.5 -260.7 310.7C-277.4 293.9 -288.9 271.4 -296.5 248.8C-304 226.2 -307.6 203.5 -320.9 185.3C-334.2 167 -357.2 153 -367.9 133.9C-378.6 114.8 -376.9 90.4 -381.1 67.2C-385.3 44 -395.5 22 -405.6 0L0 0Z" fill="#78c8b1"></path><path d="M0 338C-18.8 329.6 -37.5 321.2 -55.5 314.5C-73.4 307.9 -90.6 303.1 -109 299.5C-127.5 296 -147.3 293.7 -166.2 288C-185.2 282.2 -203.4 273 -217.3 258.9C-231.2 244.9 -240.8 226.1 -247 207.3C-253.3 188.5 -256.3 169.6 -267.4 154.4C-278.5 139.1 -297.7 127.5 -306.6 111.6C-315.5 95.6 -314.1 75.3 -317.6 56C-321.1 36.7 -329.6 18.3 -338 0L0 0Z" fill="#67c5aa"></path><path d="M0 270.4C-15 263.7 -30 256.9 -44.4 251.6C-58.7 246.3 -72.4 242.5 -87.2 239.6C-102 236.8 -117.8 235 -133 230.4C-148.2 225.8 -162.7 218.4 -173.8 207.2C-184.9 195.9 -192.6 180.9 -197.6 165.8C-202.7 150.8 -205 135.7 -213.9 123.5C-222.8 111.3 -238.1 102 -245.3 89.3C-252.4 76.5 -251.3 60.3 -254.1 44.8C-256.9 29.3 -263.7 14.7 -270.4 0L0 0Z" fill="#55c2a2"></path><path d="M0 202.8C-11.3 197.8 -22.5 192.7 -33.3 188.7C-44 184.7 -54.3 181.8 -65.4 179.7C-76.5 177.6 -88.4 176.2 -99.7 172.8C-111.1 169.3 -122 163.8 -130.4 155.4C-138.7 147 -144.5 135.7 -148.2 124.4C-152 113.1 -153.8 101.8 -160.4 92.6C-167.1 83.5 -178.6 76.5 -183.9 67C-189.3 57.4 -188.4 45.2 -190.6 33.6C-192.7 22 -197.7 11 -202.8 0L0 0Z" fill="#40be9a"></path><path d="M0 135.2C-7.5 131.8 -15 128.5 -22.2 125.8C-29.4 123.2 -36.2 121.2 -43.6 119.8C-51 118.4 -58.9 117.5 -66.5 115.2C-74.1 112.9 -81.4 109.2 -86.9 103.6C-92.5 98 -96.3 90.5 -98.8 82.9C-101.3 75.4 -102.5 67.8 -107 61.8C-111.4 55.7 -119.1 51 -122.6 44.6C-126.2 38.3 -125.6 30.1 -127 22.4C-128.4 14.7 -131.8 7.3 -135.2 0L0 0Z" fill="#24bb92"></path><path d="M0 67.6C-3.8 65.9 -7.5 64.2 -11.1 62.9C-14.7 61.6 -18.1 60.6 -21.8 59.9C-25.5 59.2 -29.5 58.7 -33.2 57.6C-37 56.4 -40.7 54.6 -43.5 51.8C-46.2 49 -48.2 45.2 -49.4 41.5C-50.7 37.7 -51.3 33.9 -53.5 30.9C-55.7 27.8 -59.5 25.5 -61.3 22.3C-63.1 19.1 -62.8 15.1 -63.5 11.2C-64.2 7.3 -65.9 3.7 -67.6 0L0 0Z" fill="#07b98e"></path></g><g transform="translate(0, 600)"><path d="M0 -540.8C32 -541.3 63.9 -541.8 93.9 -532.6C123.9 -523.4 151.9 -504.4 176.1 -483.9C200.4 -463.4 220.8 -441.4 247 -427.8C273.2 -414.2 305.2 -409 331 -394.5C356.9 -380 376.7 -356.1 396 -332.3C415.4 -308.5 434.3 -284.7 445.1 -257C456 -229.3 458.7 -197.5 463.3 -168.6C467.8 -139.7 474.2 -113.6 487.5 -86C500.7 -58.3 520.8 -29.2 540.8 0L0 0Z" fill="#97cebf"></path><path d="M0 -473.2C28 -473.7 55.9 -474.1 82.2 -466C108.4 -458 132.9 -441.4 154.1 -423.4C175.3 -405.5 193.2 -386.2 216.1 -374.3C239 -362.4 267 -357.9 289.7 -345.2C312.3 -332.5 329.6 -311.6 346.5 -290.8C363.5 -269.9 380 -249.2 389.5 -224.9C399 -200.6 401.4 -172.8 405.4 -147.5C409.4 -122.2 415 -99.4 426.5 -75.2C438.1 -51 455.7 -25.5 473.2 0L0 0Z" fill="#87cbb8"></path><path d="M0 -405.6C24 -406 47.9 -406.4 70.4 -399.5C92.9 -392.5 113.9 -378.3 132.1 -363C150.3 -347.6 165.6 -331.1 185.2 -320.9C204.9 -310.7 228.9 -306.8 248.3 -295.9C267.7 -285 282.5 -267.1 297 -249.2C311.5 -231.4 325.7 -213.6 333.9 -192.8C342 -171.9 344 -148.1 347.5 -126.5C350.9 -104.8 355.7 -85.2 365.6 -64.5C375.5 -43.7 390.6 -21.9 405.6 0L0 0Z" fill="#78c8b1"></path><path d="M0 -338C20 -338.3 40 -338.7 58.7 -332.9C77.4 -327.1 94.9 -315.3 110.1 -302.5C125.2 -289.7 138 -275.9 154.4 -267.4C170.7 -258.9 190.7 -255.6 206.9 -246.6C223.1 -237.5 235.4 -222.6 247.5 -207.7C259.6 -192.8 271.4 -178 278.2 -160.6C285 -143.3 286.7 -123.5 289.5 -105.4C292.4 -87.3 296.4 -71 304.7 -53.7C312.9 -36.5 325.5 -18.2 338 0L0 0Z" fill="#67c5aa"></path><path d="M0 -270.4C16 -270.7 32 -270.9 47 -266.3C62 -261.7 76 -252.2 88.1 -242C100.2 -231.7 110.4 -220.7 123.5 -213.9C136.6 -207.1 152.6 -204.5 165.5 -197.3C178.5 -190 188.3 -178.1 198 -166.2C207.7 -154.3 217.2 -142.4 222.6 -128.5C228 -114.6 229.3 -98.8 231.6 -84.3C233.9 -69.8 237.1 -56.8 243.7 -43C250.4 -29.2 260.4 -14.6 270.4 0L0 0Z" fill="#55c2a2"></path><path d="M0 -202.8C12 -203 24 -203.2 35.2 -199.7C46.5 -196.3 57 -189.2 66.1 -181.5C75.1 -173.8 82.8 -165.5 92.6 -160.4C102.4 -155.3 114.4 -153.4 124.1 -147.9C133.8 -142.5 141.3 -133.6 148.5 -124.6C155.8 -115.7 162.9 -106.8 166.9 -96.4C171 -86 172 -74.1 173.7 -63.2C175.4 -52.4 177.8 -42.6 182.8 -32.2C187.8 -21.9 195.3 -10.9 202.8 0L0 0Z" fill="#40be9a"></path><path d="M0 -135.2C8 -135.3 16 -135.5 23.5 -133.2C31 -130.8 38 -126.1 44 -121C50.1 -115.9 55.2 -110.4 61.7 -107C68.3 -103.6 76.3 -102.3 82.8 -98.6C89.2 -95 94.2 -89 99 -83.1C103.8 -77.1 108.6 -71.2 111.3 -64.3C114 -57.3 114.7 -49.4 115.8 -42.2C117 -34.9 118.6 -28.4 121.9 -21.5C125.2 -14.6 130.2 -7.3 135.2 0L0 0Z" fill="#24bb92"></path><path d="M0 -67.6C4 -67.7 8 -67.7 11.7 -66.6C15.5 -65.4 19 -63.1 22 -60.5C25 -57.9 27.6 -55.2 30.9 -53.5C34.1 -51.8 38.1 -51.1 41.4 -49.3C44.6 -47.5 47.1 -44.5 49.5 -41.5C51.9 -38.6 54.3 -35.6 55.6 -32.1C57 -28.7 57.3 -24.7 57.9 -21.1C58.5 -17.5 59.3 -14.2 60.9 -10.7C62.6 -7.3 65.1 -3.6 67.6 0L0 0Z" fill="#07b98e"></path></g></svg>