<svg id="visual" viewBox="0 0 900 600" width="900" height="600" xmlns="http://www.w3.org/2000/svg" xmlns:xlink="http://www.w3.org/1999/xlink" version="1.1"><path d="M827 600L824 595.7C821 591.3 815 582.7 816.5 574C818 565.3 827 556.7 827 548C827 539.3 818 530.7 819.5 522C821 513.3 833 504.7 833 496C833 487.3 821 478.7 819.5 469.8C818 461 827 452 831.5 443.2C836 434.3 836 425.7 833 417C830 408.3 824 399.7 821 391C818 382.3 818 373.7 816.5 365C815 356.3 812 347.7 810.5 339C809 330.3 809 321.7 812 313C815 304.3 821 295.7 825.5 287C830 278.3 833 269.7 833 261C833 252.3 830 243.7 831.5 235C833 226.3 839 217.7 836 209C833 200.3 821 191.7 815 183C809 174.3 809 165.7 813.5 156.8C818 148 827 139 831.5 130.2C836 121.3 836 112.7 833 104C830 95.3 824 86.7 824 78C824 69.3 830 60.7 828.5 52C827 43.3 818 34.7 815 26C812 17.3 815 8.7 816.5 4.3L818 0L900 0L900 4.3C900 8.7 900 17.3 900 26C900 34.7 900 43.3 900 52C900 60.7 900 69.3 900 78C900 86.7 900 95.3 900 104C900 112.7 900 121.3 900 130.2C900 139 900 148 900 156.8C900 165.7 900 174.3 900 183C900 191.7 900 200.3 900 209C900 217.7 900 226.3 900 235C900 243.7 900 252.3 900 261C900 269.7 900 278.3 900 287C900 295.7 900 304.3 900 313C900 321.7 900 330.3 900 339C900 347.7 900 356.3 900 365C900 373.7 900 382.3 900 391C900 399.7 900 408.3 900 417C900 425.7 900 434.3 900 443.2C900 452 900 461 900 469.8C900 478.7 900 487.3 900 496C900 504.7 900 513.3 900 522C900 530.7 900 539.3 900 548C900 556.7 900 565.3 900 574C900 582.7 900 591.3 900 595.7L900 600Z" fill="#008769"></path><path d="M800 600L791 595.7C782 591.3 764 582.7 762.5 574C761 565.3 776 556.7 776 548C776 539.3 761 530.7 759.5 522C758 513.3 770 504.7 773 496C776 487.3 770 478.7 771.5 469.8C773 461 782 452 788 443.2C794 434.3 797 425.7 797 417C797 408.3 794 399.7 788 391C782 382.3 773 373.7 767 365C761 356.3 758 347.7 759.5 339C761 330.3 767 321.7 774.5 313C782 304.3 791 295.7 794 287C797 278.3 794 269.7 791 261C788 252.3 785 243.7 788 235C791 226.3 800 217.7 800 209C800 200.3 791 191.7 783.5 183C776 174.3 770 165.7 773 156.8C776 148 788 139 792.5 130.2C797 121.3 794 112.7 786.5 104C779 95.3 767 86.7 764 78C761 69.3 767 60.7 770 52C773 43.3 773 34.7 773 26C773 17.3 773 8.7 773 4.3L773 0L819 0L817.5 4.3C816 8.7 813 17.3 816 26C819 34.7 828 43.3 829.5 52C831 60.7 825 69.3 825 78C825 86.7 831 95.3 834 104C837 112.7 837 121.3 832.5 130.2C828 139 819 148 814.5 156.8C810 165.7 810 174.3 816 183C822 191.7 834 200.3 837 209C840 217.7 834 226.3 832.5 235C831 243.7 834 252.3 834 261C834 269.7 831 278.3 826.5 287C822 295.7 816 304.3 813 313C810 321.7 810 330.3 811.5 339C813 347.7 816 356.3 817.5 365C819 373.7 819 382.3 822 391C825 399.7 831 408.3 834 417C837 425.7 837 434.3 832.5 443.2C828 452 819 461 820.5 469.8C822 478.7 834 487.3 834 496C834 504.7 822 513.3 820.5 522C819 530.7 828 539.3 828 548C828 556.7 819 565.3 817.5 574C816 582.7 822 591.3 825 595.7L828 600Z" fill="#009070"></path><path d="M611 600L615.5 595.7C620 591.3 629 582.7 618.5 574C608 565.3 578 556.7 557 548C536 539.3 524 530.7 542 522C560 513.3 608 504.7 621.5 496C635 487.3 614 478.7 618.5 469.8C623 461 653 452 660.5 443.2C668 434.3 653 425.7 636.5 417C620 408.3 602 399.7 591.5 391C581 382.3 578 373.7 578 365C578 356.3 581 347.7 578 339C575 330.3 566 321.7 585.5 313C605 304.3 653 295.7 671 287C689 278.3 677 269.7 665 261C653 252.3 641 243.7 644 235C647 226.3 665 217.7 671 209C677 200.3 671 191.7 647 183C623 174.3 581 165.7 567.5 156.8C554 148 569 139 590 130.2C611 121.3 638 112.7 650 104C662 95.3 659 86.7 648.5 78C638 69.3 620 60.7 602 52C584 43.3 566 34.7 561.5 26C557 17.3 566 8.7 570.5 4.3L575 0L774 0L774 4.3C774 8.7 774 17.3 774 26C774 34.7 774 43.3 771 52C768 60.7 762 69.3 765 78C768 86.7 780 95.3 787.5 104C795 112.7 798 121.3 793.5 130.2C789 139 777 148 774 156.8C771 165.7 777 174.3 784.5 183C792 191.7 801 200.3 801 209C801 217.7 792 226.3 789 235C786 243.7 789 252.3 792 261C795 269.7 798 278.3 795 287C792 295.7 783 304.3 775.5 313C768 321.7 762 330.3 760.5 339C759 347.7 762 356.3 768 365C774 373.7 783 382.3 789 391C795 399.7 798 408.3 798 417C798 425.7 795 434.3 789 443.2C783 452 774 461 772.5 469.8C771 478.7 777 487.3 774 496C771 504.7 759 513.3 760.5 522C762 530.7 777 539.3 777 548C777 556.7 762 565.3 763.5 574C765 582.7 783 591.3 792 595.7L801 600Z" fill="#019976"></path><path d="M575 600L578 595.7C581 591.3 587 582.7 575 574C563 565.3 533 556.7 512 548C491 539.3 479 530.7 497 522C515 513.3 563 504.7 575 496C587 487.3 563 478.7 567.5 469.8C572 461 605 452 617 443.2C629 434.3 620 425.7 602 417C584 408.3 557 399.7 545 391C533 382.3 536 373.7 540.5 365C545 356.3 551 347.7 546.5 339C542 330.3 527 321.7 545 313C563 304.3 614 295.7 632 287C650 278.3 635 269.7 621.5 261C608 252.3 596 243.7 602 235C608 226.3 632 217.7 636.5 209C641 200.3 626 191.7 599 183C572 174.3 533 165.7 524 156.8C515 148 536 139 558.5 130.2C581 121.3 605 112.7 612.5 104C620 95.3 611 86.7 600.5 78C590 69.3 578 60.7 561.5 52C545 43.3 524 34.7 519.5 26C515 17.3 527 8.7 533 4.3L539 0L576 0L571.5 4.3C567 8.7 558 17.3 562.5 26C567 34.7 585 43.3 603 52C621 60.7 639 69.3 649.5 78C660 86.7 663 95.3 651 104C639 112.7 612 121.3 591 130.2C570 139 555 148 568.5 156.8C582 165.7 624 174.3 648 183C672 191.7 678 200.3 672 209C666 217.7 648 226.3 645 235C642 243.7 654 252.3 666 261C678 269.7 690 278.3 672 287C654 295.7 606 304.3 586.5 313C567 321.7 576 330.3 579 339C582 347.7 579 356.3 579 365C579 373.7 582 382.3 592.5 391C603 399.7 621 408.3 637.5 417C654 425.7 669 434.3 661.5 443.2C654 452 624 461 619.5 469.8C615 478.7 636 487.3 622.5 496C609 504.7 561 513.3 543 522C525 530.7 537 539.3 558 548C579 556.7 609 565.3 619.5 574C630 582.7 621 591.3 616.5 595.7L612 600Z" fill="#02a27d"></path><path d="M512 600L519.5 595.7C527 591.3 542 582.7 531.5 574C521 565.3 485 556.7 464 548C443 539.3 437 530.7 453.5 522C470 513.3 509 504.7 521 496C533 487.3 518 478.7 522.5 469.8C527 461 551 452 558.5 443.2C566 434.3 557 425.7 539 417C521 408.3 494 399.7 485 391C476 382.3 485 373.7 491 365C497 356.3 500 347.7 494 339C488 330.3 473 321.7 489.5 313C506 304.3 554 295.7 572 287C590 278.3 578 269.7 569 261C560 252.3 554 243.7 558.5 235C563 226.3 578 217.7 579.5 209C581 200.3 569 191.7 546.5 183C524 174.3 491 165.7 479 156.8C467 148 476 139 498.5 130.2C521 121.3 557 112.7 567.5 104C578 95.3 563 86.7 551 78C539 69.3 530 60.7 513.5 52C497 43.3 473 34.7 470 26C467 17.3 485 8.7 494 4.3L503 0L540 0L534 4.3C528 8.7 516 17.3 520.5 26C525 34.7 546 43.3 562.5 52C579 60.7 591 69.3 601.5 78C612 86.7 621 95.3 613.5 104C606 112.7 582 121.3 559.5 130.2C537 139 516 148 525 156.8C534 165.7 573 174.3 600 183C627 191.7 642 200.3 637.5 209C633 217.7 609 226.3 603 235C597 243.7 609 252.3 622.5 261C636 269.7 651 278.3 633 287C615 295.7 564 304.3 546 313C528 321.7 543 330.3 547.5 339C552 347.7 546 356.3 541.5 365C537 373.7 534 382.3 546 391C558 399.7 585 408.3 603 417C621 425.7 630 434.3 618 443.2C606 452 573 461 568.5 469.8C564 478.7 588 487.3 576 496C564 504.7 516 513.3 498 522C480 530.7 492 539.3 513 548C534 556.7 564 565.3 576 574C588 582.7 582 591.3 579 595.7L576 600Z" fill="#04ab84"></path><path d="M440 600L443 595.7C446 591.3 452 582.7 444.5 574C437 565.3 416 556.7 399.5 548C383 539.3 371 530.7 383 522C395 513.3 431 504.7 438.5 496C446 487.3 425 478.7 428 469.8C431 461 458 452 464 443.2C470 434.3 455 425.7 438.5 417C422 408.3 404 399.7 395 391C386 382.3 386 373.7 395 365C404 356.3 422 347.7 420.5 339C419 330.3 398 321.7 407 313C416 304.3 455 295.7 473 287C491 278.3 488 269.7 483.5 261C479 252.3 473 243.7 471.5 235C470 226.3 473 217.7 471.5 209C470 200.3 464 191.7 450.5 183C437 174.3 416 165.7 407 156.8C398 148 401 139 423.5 130.2C446 121.3 488 112.7 500 104C512 95.3 494 86.7 479 78C464 69.3 452 60.7 437 52C422 43.3 404 34.7 399.5 26C395 17.3 404 8.7 408.5 4.3L413 0L504 0L495 4.3C486 8.7 468 17.3 471 26C474 34.7 498 43.3 514.5 52C531 60.7 540 69.3 552 78C564 86.7 579 95.3 568.5 104C558 112.7 522 121.3 499.5 130.2C477 139 468 148 480 156.8C492 165.7 525 174.3 547.5 183C570 191.7 582 200.3 580.5 209C579 217.7 564 226.3 559.5 235C555 243.7 561 252.3 570 261C579 269.7 591 278.3 573 287C555 295.7 507 304.3 490.5 313C474 321.7 489 330.3 495 339C501 347.7 498 356.3 492 365C486 373.7 477 382.3 486 391C495 399.7 522 408.3 540 417C558 425.7 567 434.3 559.5 443.2C552 452 528 461 523.5 469.8C519 478.7 534 487.3 522 496C510 504.7 471 513.3 454.5 522C438 530.7 444 539.3 465 548C486 556.7 522 565.3 532.5 574C543 582.7 528 591.3 520.5 595.7L513 600Z" fill="#06b48b"></path><path d="M377 600L386 595.7C395 591.3 413 582.7 407 574C401 565.3 371 556.7 354.5 548C338 539.3 335 530.7 350 522C365 513.3 398 504.7 405.5 496C413 487.3 395 478.7 395 469.8C395 461 413 452 416 443.2C419 434.3 407 425.7 395 417C383 408.3 371 399.7 363.5 391C356 382.3 353 373.7 360.5 365C368 356.3 386 347.7 384.5 339C383 330.3 362 321.7 369.5 313C377 304.3 413 295.7 429.5 287C446 278.3 443 269.7 441.5 261C440 252.3 440 243.7 441.5 235C443 226.3 446 217.7 440 209C434 200.3 419 191.7 401 183C383 174.3 362 165.7 357.5 156.8C353 148 365 139 387.5 130.2C410 121.3 443 112.7 450.5 104C458 95.3 440 86.7 426.5 78C413 69.3 404 60.7 390.5 52C377 43.3 359 34.7 357.5 26C356 17.3 371 8.7 378.5 4.3L386 0L414 0L409.5 4.3C405 8.7 396 17.3 400.5 26C405 34.7 423 43.3 438 52C453 60.7 465 69.3 480 78C495 86.7 513 95.3 501 104C489 112.7 447 121.3 424.5 130.2C402 139 399 148 408 156.8C417 165.7 438 174.3 451.5 183C465 191.7 471 200.3 472.5 209C474 217.7 471 226.3 472.5 235C474 243.7 480 252.3 484.5 261C489 269.7 492 278.3 474 287C456 295.7 417 304.3 408 313C399 321.7 420 330.3 421.5 339C423 347.7 405 356.3 396 365C387 373.7 387 382.3 396 391C405 399.7 423 408.3 439.5 417C456 425.7 471 434.3 465 443.2C459 452 432 461 429 469.8C426 478.7 447 487.3 439.5 496C432 504.7 396 513.3 384 522C372 530.7 384 539.3 400.5 548C417 556.7 438 565.3 445.5 574C453 582.7 447 591.3 444 595.7L441 600Z" fill="#16bb91"></path><path d="M305 600L312.5 595.7C320 591.3 335 582.7 335 574C335 565.3 320 556.7 306.5 548C293 539.3 281 530.7 290 522C299 513.3 329 504.7 335 496C341 487.3 323 478.7 327.5 469.8C332 461 359 452 365 443.2C371 434.3 356 425.7 342.5 417C329 408.3 317 399.7 308 391C299 382.3 293 373.7 303.5 365C314 356.3 341 347.7 339.5 339C338 330.3 308 321.7 314 313C320 304.3 362 295.7 375.5 287C389 278.3 374 269.7 371 261C368 252.3 377 243.7 386 235C395 226.3 404 217.7 393.5 209C383 200.3 353 191.7 330.5 183C308 174.3 293 165.7 291.5 156.8C290 148 302 139 329 130.2C356 121.3 398 112.7 405.5 104C413 95.3 386 86.7 368 78C350 69.3 341 60.7 326 52C311 43.3 290 34.7 290 26C290 17.3 311 8.7 321.5 4.3L332 0L387 0L379.5 4.3C372 8.7 357 17.3 358.5 26C360 34.7 378 43.3 391.5 52C405 60.7 414 69.3 427.5 78C441 86.7 459 95.3 451.5 104C444 112.7 411 121.3 388.5 130.2C366 139 354 148 358.5 156.8C363 165.7 384 174.3 402 183C420 191.7 435 200.3 441 209C447 217.7 444 226.3 442.5 235C441 243.7 441 252.3 442.5 261C444 269.7 447 278.3 430.5 287C414 295.7 378 304.3 370.5 313C363 321.7 384 330.3 385.5 339C387 347.7 369 356.3 361.5 365C354 373.7 357 382.3 364.5 391C372 399.7 384 408.3 396 417C408 425.7 420 434.3 417 443.2C414 452 396 461 396 469.8C396 478.7 414 487.3 406.5 496C399 504.7 366 513.3 351 522C336 530.7 339 539.3 355.5 548C372 556.7 402 565.3 408 574C414 582.7 396 591.3 387 595.7L378 600Z" fill="#28bf97"></path><path d="M287 600L290 595.7C293 591.3 299 582.7 296 574C293 565.3 281 556.7 269 548C257 539.3 245 530.7 257 522C269 513.3 305 504.7 309.5 496C314 487.3 287 478.7 291.5 469.8C296 461 332 452 338 443.2C344 434.3 320 425.7 306.5 417C293 408.3 290 399.7 281 391C272 382.3 257 373.7 263 365C269 356.3 296 347.7 297.5 339C299 330.3 275 321.7 285.5 313C296 304.3 341 295.7 356 287C371 278.3 356 269.7 350 261C344 252.3 347 243.7 351.5 235C356 226.3 362 217.7 353 209C344 200.3 320 191.7 302 183C284 174.3 272 165.7 267.5 156.8C263 148 266 139 288.5 130.2C311 121.3 353 112.7 363.5 104C374 95.3 353 86.7 336.5 78C320 69.3 308 60.7 291.5 52C275 43.3 254 34.7 252.5 26C251 17.3 269 8.7 278 4.3L287 0L333 0L322.5 4.3C312 8.7 291 17.3 291 26C291 34.7 312 43.3 327 52C342 60.7 351 69.3 369 78C387 86.7 414 95.3 406.5 104C399 112.7 357 121.3 330 130.2C303 139 291 148 292.5 156.8C294 165.7 309 174.3 331.5 183C354 191.7 384 200.3 394.5 209C405 217.7 396 226.3 387 235C378 243.7 369 252.3 372 261C375 269.7 390 278.3 376.5 287C363 295.7 321 304.3 315 313C309 321.7 339 330.3 340.5 339C342 347.7 315 356.3 304.5 365C294 373.7 300 382.3 309 391C318 399.7 330 408.3 343.5 417C357 425.7 372 434.3 366 443.2C360 452 333 461 328.5 469.8C324 478.7 342 487.3 336 496C330 504.7 300 513.3 291 522C282 530.7 294 539.3 307.5 548C321 556.7 336 565.3 336 574C336 582.7 321 591.3 313.5 595.7L306 600Z" fill="#35c39c"></path><path d="M224 600L227 595.7C230 591.3 236 582.7 230 574C224 565.3 206 556.7 192.5 548C179 539.3 170 530.7 179 522C188 513.3 215 504.7 221 496C227 487.3 212 478.7 213.5 469.8C215 461 233 452 236 443.2C239 434.3 227 425.7 209 417C191 408.3 167 399.7 149 391C131 382.3 119 373.7 134 365C149 356.3 191 347.7 200 339C209 330.3 185 321.7 186.5 313C188 304.3 215 295.7 233 287C251 278.3 260 269.7 266 261C272 252.3 275 243.7 276.5 235C278 226.3 278 217.7 264.5 209C251 200.3 224 191.7 201.5 183C179 174.3 161 165.7 149 156.8C137 148 131 139 152 130.2C173 121.3 221 112.7 237.5 104C254 95.3 239 86.7 219.5 78C200 69.3 176 60.7 162.5 52C149 43.3 146 34.7 153.5 26C161 17.3 179 8.7 188 4.3L197 0L288 0L279 4.3C270 8.7 252 17.3 253.5 26C255 34.7 276 43.3 292.5 52C309 60.7 321 69.3 337.5 78C354 86.7 375 95.3 364.5 104C354 112.7 312 121.3 289.5 130.2C267 139 264 148 268.5 156.8C273 165.7 285 174.3 303 183C321 191.7 345 200.3 354 209C363 217.7 357 226.3 352.5 235C348 243.7 345 252.3 351 261C357 269.7 372 278.3 357 287C342 295.7 297 304.3 286.5 313C276 321.7 300 330.3 298.5 339C297 347.7 270 356.3 264 365C258 373.7 273 382.3 282 391C291 399.7 294 408.3 307.5 417C321 425.7 345 434.3 339 443.2C333 452 297 461 292.5 469.8C288 478.7 315 487.3 310.5 496C306 504.7 270 513.3 258 522C246 530.7 258 539.3 270 548C282 556.7 294 565.3 297 574C300 582.7 294 591.3 291 595.7L288 600Z" fill="#40c7a2"></path><path d="M17 600L18.5 595.7C20 591.3 23 582.7 24.5 574C26 565.3 26 556.7 29 548C32 539.3 38 530.7 38 522C38 513.3 32 504.7 32 496C32 487.3 38 478.7 41 469.8C44 461 44 452 39.5 443.2C35 434.3 26 425.7 23 417C20 408.3 23 399.7 23 391C23 382.3 20 373.7 21.5 365C23 356.3 29 347.7 30.5 339C32 330.3 29 321.7 30.5 313C32 304.3 38 295.7 38 287C38 278.3 32 269.7 32 261C32 252.3 38 243.7 38 235C38 226.3 32 217.7 30.5 209C29 200.3 32 191.7 35 183C38 174.3 41 165.7 38 156.8C35 148 26 139 21.5 130.2C17 121.3 17 112.7 20 104C23 95.3 29 86.7 29 78C29 69.3 23 60.7 23 52C23 43.3 29 34.7 32 26C35 17.3 35 8.7 35 4.3L35 0L198 0L189 4.3C180 8.7 162 17.3 154.5 26C147 34.7 150 43.3 163.5 52C177 60.7 201 69.3 220.5 78C240 86.7 255 95.3 238.5 104C222 112.7 174 121.3 153 130.2C132 139 138 148 150 156.8C162 165.7 180 174.3 202.5 183C225 191.7 252 200.3 265.5 209C279 217.7 279 226.3 277.5 235C276 243.7 273 252.3 267 261C261 269.7 252 278.3 234 287C216 295.7 189 304.3 187.5 313C186 321.7 210 330.3 201 339C192 347.7 150 356.3 135 365C120 373.7 132 382.3 150 391C168 399.7 192 408.3 210 417C228 425.7 240 434.3 237 443.2C234 452 216 461 214.5 469.8C213 478.7 228 487.3 222 496C216 504.7 189 513.3 180 522C171 530.7 180 539.3 193.5 548C207 556.7 225 565.3 231 574C237 582.7 231 591.3 228 595.7L225 600Z" fill="#4acba7"></path><path d="M0 600L0 595.7C0 591.3 0 582.7 0 574C0 565.3 0 556.7 0 548C0 539.3 0 530.7 0 522C0 513.3 0 504.7 0 496C0 487.3 0 478.7 0 469.8C0 461 0 452 0 443.2C0 434.3 0 425.7 0 417C0 408.3 0 399.7 0 391C0 382.3 0 373.7 0 365C0 356.3 0 347.7 0 339C0 330.3 0 321.7 0 313C0 304.3 0 295.7 0 287C0 278.3 0 269.7 0 261C0 252.3 0 243.7 0 235C0 226.3 0 217.7 0 209C0 200.3 0 191.7 0 183C0 174.3 0 165.7 0 156.8C0 148 0 139 0 130.2C0 121.3 0 112.7 0 104C0 95.3 0 86.7 0 78C0 69.3 0 60.7 0 52C0 43.3 0 34.7 0 26C0 17.3 0 8.7 0 4.3L0 0L36 0L36 4.3C36 8.7 36 17.3 33 26C30 34.7 24 43.3 24 52C24 60.7 30 69.3 30 78C30 86.7 24 95.3 21 104C18 112.7 18 121.3 22.5 130.2C27 139 36 148 39 156.8C42 165.7 39 174.3 36 183C33 191.7 30 200.3 31.5 209C33 217.7 39 226.3 39 235C39 243.7 33 252.3 33 261C33 269.7 39 278.3 39 287C39 295.7 33 304.3 31.5 313C30 321.7 33 330.3 31.5 339C30 347.7 24 356.3 22.5 365C21 373.7 24 382.3 24 391C24 399.7 21 408.3 24 417C27 425.7 36 434.3 40.5 443.2C45 452 45 461 42 469.8C39 478.7 33 487.3 33 496C33 504.7 39 513.3 39 522C39 530.7 33 539.3 30 548C27 556.7 27 565.3 25.5 574C24 582.7 21 591.3 19.5 595.7L18 600Z" fill="#53cfad"></path></svg>