<svg id="visual" viewBox="0 0 900 600" width="900" height="600" xmlns="http://www.w3.org/2000/svg" xmlns:xlink="http://www.w3.org/1999/xlink" version="1.1"><rect x="0" y="0" width="900" height="600" fill="#9ECFC2"></rect><g transform="translate(-59.93832511845045 580.0461693404927)"><path d="M397.1 -587.4C523.8 -614.6 642.1 -526.8 677.3 -409.7C712.6 -292.7 664.8 -146.3 644 -12C623.2 122.3 629.4 244.7 526.6 244.7C423.8 244.7 211.9 122.3 105.9 251.7C0 381 0 762 -32.4 818.1C-64.8 874.3 -129.7 605.6 -208.2 460.4C-286.7 315.3 -378.9 293.6 -449 237.5C-519.1 181.3 -567 90.7 -569.9 -1.7C-572.8 -94 -530.6 -188 -528.1 -361.2C-525.6 -534.4 -562.8 -786.8 -481.4 -785.8C-400 -784.8 -200 -530.4 -32.4 -474.3C135.2 -418.1 270.3 -560.2 397.1 -587.4" fill="#07b98e"></path></g></svg>