<svg id="visual" viewBox="0 0 900 600" width="900" height="600" xmlns="http://www.w3.org/2000/svg" xmlns:xlink="http://www.w3.org/1999/xlink" version="1.1"><path d="M0 187L18.8 174C37.7 161 75.3 135 112.8 138C150.3 141 187.7 173 225.2 182C262.7 191 300.3 177 337.8 166C375.3 155 412.7 147 450.2 143C487.7 139 525.3 139 562.8 140C600.3 141 637.7 143 675.2 137C712.7 131 750.3 117 787.8 120C825.3 123 862.7 143 881.3 153L900 163L900 0L881.3 0C862.7 0 825.3 0 787.8 0C750.3 0 712.7 0 675.2 0C637.7 0 600.3 0 562.8 0C525.3 0 487.7 0 450.2 0C412.7 0 375.3 0 337.8 0C300.3 0 262.7 0 225.2 0C187.7 0 150.3 0 112.8 0C75.3 0 37.7 0 18.8 0L0 0Z" fill="#07b98e"></path><path d="M0 289L18.8 270C37.7 251 75.3 213 112.8 205C150.3 197 187.7 219 225.2 225C262.7 231 300.3 221 337.8 221C375.3 221 412.7 231 450.2 228C487.7 225 525.3 209 562.8 208C600.3 207 637.7 221 675.2 218C712.7 215 750.3 195 787.8 189C825.3 183 862.7 191 881.3 195L900 199L900 161L881.3 151C862.7 141 825.3 121 787.8 118C750.3 115 712.7 129 675.2 135C637.7 141 600.3 139 562.8 138C525.3 137 487.7 137 450.2 141C412.7 145 375.3 153 337.8 164C300.3 175 262.7 189 225.2 180C187.7 171 150.3 139 112.8 136C75.3 133 37.7 159 18.8 172L0 185Z" fill="#46bf9c"></path><path d="M0 397L18.8 381C37.7 365 75.3 333 112.8 327C150.3 321 187.7 341 225.2 345C262.7 349 300.3 337 337.8 328C375.3 319 412.7 313 450.2 310C487.7 307 525.3 307 562.8 314C600.3 321 637.7 335 675.2 330C712.7 325 750.3 301 787.8 289C825.3 277 862.7 277 881.3 277L900 277L900 197L881.3 193C862.7 189 825.3 181 787.8 187C750.3 193 712.7 213 675.2 216C637.7 219 600.3 205 562.8 206C525.3 207 487.7 223 450.2 226C412.7 229 375.3 219 337.8 219C300.3 219 262.7 229 225.2 223C187.7 217 150.3 195 112.8 203C75.3 211 37.7 249 18.8 268L0 287Z" fill="#67c5aa"></path><path d="M0 523L18.8 513C37.7 503 75.3 483 112.8 477C150.3 471 187.7 479 225.2 484C262.7 489 300.3 491 337.8 485C375.3 479 412.7 465 450.2 472C487.7 479 525.3 507 562.8 513C600.3 519 637.7 503 675.2 491C712.7 479 750.3 471 787.8 477C825.3 483 862.7 503 881.3 513L900 523L900 275L881.3 275C862.7 275 825.3 275 787.8 287C750.3 299 712.7 323 675.2 328C637.7 333 600.3 319 562.8 312C525.3 305 487.7 305 450.2 308C412.7 311 375.3 317 337.8 326C300.3 335 262.7 347 225.2 343C187.7 339 150.3 319 112.8 325C75.3 331 37.7 363 18.8 379L0 395Z" fill="#83cab6"></path><path d="M0 601L18.8 601C37.7 601 75.3 601 112.8 601C150.3 601 187.7 601 225.2 601C262.7 601 300.3 601 337.8 601C375.3 601 412.7 601 450.2 601C487.7 601 525.3 601 562.8 601C600.3 601 637.7 601 675.2 601C712.7 601 750.3 601 787.8 601C825.3 601 862.7 601 881.3 601L900 601L900 521L881.3 511C862.7 501 825.3 481 787.8 475C750.3 469 712.7 477 675.2 489C637.7 501 600.3 517 562.8 511C525.3 505 487.7 477 450.2 470C412.7 463 375.3 477 337.8 483C300.3 489 262.7 487 225.2 482C187.7 477 150.3 469 112.8 475C75.3 481 37.7 501 18.8 511L0 521Z" fill="#9ecfc2"></path></svg>